0
SECTION
2
HEADER
0
ENDSEC
0
SECTION
2
ENTITIES
0
LINE
8
AICAD_GEOMETRY
10
0
20
0
30
0
11
35
21
0
31
0
0
LINE
8
AICAD_GEOMETRY
10
0
20
167.5
30
0
11
0
21
429.5
31
0
0
LINE
8
AICAD_GEOMETRY
10
0
20
429.5
30
0
11
35
21
429.5
31
0
0
LINE
8
AICAD_GEOMETRY
10
0
20
167.5
30
0
11
35
21
167.5
31
0
0
LINE
8
AICAD_GEOMETRY
10
1575
20
167.5
30
0
11
1575
21
429.5
31
0
0
ARC
8
AICAD_GEOMETRY
10
49
20
590
30
0
40
7
50
90
51
180
0
ARC
8
AICAD_GEOMETRY
10
356
20
590
30
0
40
7
50
0
51
90
0
LINE
8
AICAD_GEOMETRY
10
35
20
429.5
30
0
11
42
21
590
31
0
0
LINE
8
AICAD_GEOMETRY
10
370
20
429.5
30
0
11
363
21
590
31
0
0
LINE
8
AICAD_GEOMETRY
10
49
20
597
30
0
11
356
21
597
31
0
0
ARC
8
AICAD_GEOMETRY
10
384
20
590
30
0
40
7
50
90
51
180
0
ARC
8
AICAD_GEOMETRY
10
791
20
590
30
0
40
7
50
0
51
90
0
LINE
8
AICAD_GEOMETRY
10
370
20
429.5
30
0
11
377
21
590
31
0
0
LINE
8
AICAD_GEOMETRY
10
805
20
429.5
30
0
11
798
21
590
31
0
0
LINE
8
AICAD_GEOMETRY
10
384
20
597
30
0
11
791
21
597
31
0
0
ARC
8
AICAD_GEOMETRY
10
819
20
590
30
0
40
7
50
90
51
180
0
ARC
8
AICAD_GEOMETRY
10
1126
20
590
30
0
40
7
50
0
51
90
0
LINE
8
AICAD_GEOMETRY
10
805
20
429.5
30
0
11
812
21
590
31
0
0
LINE
8
AICAD_GEOMETRY
10
1140
20
429.5
30
0
11
1133
21
590
31
0
0
LINE
8
AICAD_GEOMETRY
10
819
20
597
30
0
11
1126
21
597
31
0
0
ARC
8
AICAD_GEOMETRY
10
1154
20
590
30
0
40
7
50
90
51
180
0
ARC
8
AICAD_GEOMETRY
10
1561
20
590
30
0
40
7
50
0
51
90
0
LINE
8
AICAD_GEOMETRY
10
1140
20
429.5
30
0
11
1147
21
590
31
0
0
LINE
8
AICAD_GEOMETRY
10
1575
20
429.5
30
0
11
1568
21
590
31
0
0
LINE
8
AICAD_GEOMETRY
10
1154
20
597
30
0
11
1561
21
597
31
0
0
ARC
8
AICAD_GEOMETRY
10
49
20
7
30
0
40
7
50
180
51
270
0
ARC
8
AICAD_GEOMETRY
10
356
20
7
30
0
40
7
50
270
51
360
0
LINE
8
AICAD_GEOMETRY
10
35
20
167.5
30
0
11
42
21
7
31
0
0
LINE
8
AICAD_GEOMETRY
10
370
20
167.5
30
0
11
363
21
7
31
0
0
LINE
8
AICAD_GEOMETRY
10
49
20
0
30
0
11
356
21
0
31
0
0
ARC
8
AICAD_GEOMETRY
10
384
20
7
30
0
40
7
50
180
51
270
0
ARC
8
AICAD_GEOMETRY
10
791
20
7
30
0
40
7
50
270
51
360
0
LINE
8
AICAD_GEOMETRY
10
370
20
167.5
30
0
11
377
21
7
31
0
0
LINE
8
AICAD_GEOMETRY
10
805
20
167.5
30
0
11
798
21
7
31
0
0
LINE
8
AICAD_GEOMETRY
10
384
20
0
30
0
11
791
21
0
31
0
0
ARC
8
AICAD_GEOMETRY
10
819
20
7
30
0
40
7
50
180
51
270
0
ARC
8
AICAD_GEOMETRY
10
1126
20
7
30
0
40
7
50
270
51
360
0
LINE
8
AICAD_GEOMETRY
10
805
20
167.5
30
0
11
812
21
7
31
0
0
LINE
8
AICAD_GEOMETRY
10
1140
20
167.5
30
0
11
1133
21
7
31
0
0
LINE
8
AICAD_GEOMETRY
10
819
20
0
30
0
11
1126
21
0
31
0
0
ARC
8
AICAD_GEOMETRY
10
1154
20
7
30
0
40
7
50
180
51
270
0
ARC
8
AICAD_GEOMETRY
10
1561
20
7
30
0
40
7
50
270
51
360
0
LINE
8
AICAD_GEOMETRY
10
1140
20
167.5
30
0
11
1147
21
7
31
0
0
LINE
8
AICAD_GEOMETRY
10
1575
20
167.5
30
0
11
1568
21
7
31
0
0
LINE
8
AICAD_GEOMETRY
10
1154
20
0
30
0
11
1561
21
0
31
0
0
LINE
8
AICAD_GEOMETRY
10
35
20
429.5
30
0
11
370
21
429.5
31
0
0
LINE
8
AICAD_GEOMETRY
10
35
20
167.5
30
0
11
370
21
167.5
31
0
0
LINE
8
AICAD_GEOMETRY
10
370
20
429.5
30
0
11
805
21
429.5
31
0
0
LINE
8
AICAD_GEOMETRY
10
370
20
167.5
30
0
11
805
21
167.5
31
0
0
LINE
8
AICAD_GEOMETRY
10
805
20
429.5
30
0
11
1140
21
429.5
31
0
0
LINE
8
AICAD_GEOMETRY
10
805
20
167.5
30
0
11
1140
21
167.5
31
0
0
LINE
8
AICAD_GEOMETRY
10
1140
20
429.5
30
0
11
1575
21
429.5
31
0
0
LINE
8
AICAD_GEOMETRY
10
1140
20
167.5
30
0
11
1575
21
167.5
31
0
0
LINE
8
AICAD_GEOMETRY
10
35
20
167.5
30
0
11
35
21
429.5
31
0
0
LINE
8
AICAD_GEOMETRY
10
370
20
167.5
30
0
11
370
21
429.5
31
0
0
LINE
8
AICAD_GEOMETRY
10
805
20
167.5
30
0
11
805
21
429.5
31
0
0
LINE
8
AICAD_GEOMETRY
10
1140
20
167.5
30
0
11
1140
21
429.5
31
0
0
ENDSEC
0
EOF
